<mxfile host="app.diagrams.net" modified="2023-08-01T03:48:42.931Z" agent="Mozilla/5.0 (Windows NT 10.0; Win64; x64) AppleWebKit/537.36 (KHTML, like Gecko) Chrome/115.0.0.0 Safari/537.36" version="21.6.6" etag="sA7lbNqiTcJg9UZjdR9Y" type="github">
  <diagram name="第 1 页" id="wEK5l8ZAVqnHZuahPns1">
    <mxGraphModel>
      <root>
        <mxCell id="0" />
        <mxCell id="1" parent="0" />
      </root>
    </mxGraphModel>
  </diagram>
</mxfile>
